<?xml version="1.0" encoding="utf-8"?>
<!-- Generator: Adobe Illustrator 25.0.1, SVG Export Plug-In . SVG Version: 6.00 Build 0)  -->
<svg version="1.1" id="Layer_1" xmlns="http://www.w3.org/2000/svg" xmlns:xlink="http://www.w3.org/1999/xlink" x="0px" y="0px"
	 viewBox="0 0 368.5 368.5" style="enable-background:new 0 0 368.5 368.5;" xml:space="preserve">
<style type="text/css">
	.st0{fill-rule:evenodd;clip-rule:evenodd;fill:#FAB71C;}
	.st1{fill-rule:evenodd;clip-rule:evenodd;fill:#010202;}
	.st2{fill-rule:evenodd;clip-rule:evenodd;fill:#F9DFD0;}
	.st3{fill-rule:evenodd;clip-rule:evenodd;fill:#582F18;}
	.st4{fill-rule:evenodd;clip-rule:evenodd;fill:#FFFFFF;}
	.st5{fill-rule:evenodd;clip-rule:evenodd;fill:#E52421;}
	.st6{fill:#FFFFFF;}
</style>
<g>
	<path class="st0" d="M184.25,341.72c85.86,0,155.91-70.75,155.91-157.47S270.11,26.79,184.25,26.79S28.35,97.53,28.35,184.25
		S98.39,341.72,184.25,341.72L184.25,341.72z"/>
	<path class="st1" d="M74.15,171.43c-1.7-15.23,5.16-26.65,5.92-28.03c1.76-3.09,5.44-9.36,6.63-12.43
		c0.34-0.92,1.36-2.61,0.91-5.84c-0.48-3.32,1.02-4.12,1.47-6.07c-0.06-1.86,1.56-4.75,4.28-5.93c2.49-1.09,2.52-2.2,3.51-4.15
		c0.94-1.75,3.29-6.13,5.44-9.3c2.13-3.21,4.14-6.56,6.24-9.82c0,0,4.45-6.96,12.3-7.84c7.88-0.89,16.19,1.72,19.25,2.46
		c3.03,0.72,16.81,5.24,27.95,13.34c11.17,8.1,15.25,16.61,15.87,18.32c0,0,2.64-6.81,8.14-11.08c5.47-4.24,14.63-9.05,20.32-11.08
		c5.73-2,14.8-4.64,21.77-4.9c7-0.26,10.97,0.72,13.52,1.57c2.55,0.86,6.6,3.52,9.67,9.05c3.06,5.5,8.36,16.83,10.49,21.84
		c0,0,9.55,6.79,11.4,13.31c0,0,1.02,3.44-1.02,7.79c-2.07,4.35-2.21,5.24-1.9,6.53c0.34,1.29,4.48,13.63,4.48,13.63l10.06,31.98
		l0.68,3.09c0.23,0.89-0.31,1.92-1.19,2.23c-1.42,0.57-5.64,1.86-7.34,1.86s-3.09-0.03-3.94-1.66l-0.91-1.72l-0.65,2.23
		c0,0-0.62,1.26-2.24,1.6c-1.59,0.31-6.12,1.72-10.8,2.18c0,0-7.8,9.96-24.32,11.54c-16.53,1.57-27.75-1.78-35.38-7.33
		c0,0-11.96,3.03-18.88,1.06l-2.44-4.35l-1.84,3.81c0,0-9.75,0.57-14.46-4.7c0,0-1.56-1.32-0.91-2.89c0.65-1.6,5.58-12.37,6.75-15.2
		c0,0-7.17,14.03-23.7,18.87c-15.73,4.58-44.79,1.35-58.76-8.05C81.81,191.52,75.29,181.68,74.15,171.43L74.15,171.43z"/>
	<path class="st2" d="M162.31,194.93c0-1.55,0.03-4.27,0.09-5.84c0.06-2.32,0.71-8.68-0.4-10.59c-0.77-1.32-1.79-1.69-2.35-1.8
		c-0.6-0.11-1.25-0.31-1.22-1.15c0-0.77,0.37-1.15,0.82-1.35c0.45-0.17,5.36-1.83,7.51-4.58c2.15-2.72,2.81-4.49,2.95-6.76
		c0.11-1.49-0.54-2.92-1.25-3.75c-1.7-1.92-5.02-1.69-7.06-0.37c-2.49,1.63-4.54,3.49-5.41,4.29c-0.94,0.83-2.66,0.37-2.35-1.35
		c0.26-1.43,1.02-4.52,1.22-6.84c0.23-2.61,0.09-8.27-2.01-12.4c-2.1-4.12-6.66-8.16-9.67-10.05c-2.89-1.86-10.32-5.12-10.01-3.66
		c0.31,1.43,3.37,4.32,5.84,6.61c1.87,1.72,0.2,3.18-2.41,2.72c-2.61-0.46-9.55-1.52-15.05-6.9c-6.6-6.38-6.46-6.81-6.97-5.61
		c-0.48,1.17-0.48,4.32,0.17,6.04c0.96,2.49-1.67,2.09-2.95,1.83c-3.12-0.57-13.95-2.55-21.32-9.65c0,0.26,0,0.54,0.06,0.92
		c0.23,1.66,0.2,3.35-0.2,4.95c-0.23,0.92-0.54,1.57-0.88,2.4c-0.88,2.29-2.24,4.7-3.43,6.84c-1.11,2-2.24,3.98-3.37,5.98
		c-4.48,7.93-6.58,17.09-5.56,26.2c1.05,9.56,7.23,18.55,15.08,23.79c13.12,8.82,41.24,12.02,56.3,7.64
		C153.64,201.03,158.29,198.4,162.31,194.93L162.31,194.93z M92.07,164.78c1.36-2.4,4.93-3.52,7.54-2.95
		c1.33,0.31,15.51,4.67,18.91,5.38c3.4,0.72,7.11,4.98,5.61,10.28c-1.5,5.33-4.65,12.91-9.24,15.66c-4.59,2.78-8.45,2.95-10.35,2.69
		c-1.9-0.29-7.43-1.29-10.49-9.91c-1.76-4.95-2.49-8.42-2.81-10.45C90.77,172.37,90.62,167.36,92.07,164.78L92.07,164.78z
		 M120.98,163.95c0,0-2.95-0.06-2.52-2.4c0.43-2.35,2.81-11.05,8.16-16.78c3.09-3.32,9.44-5.18,13.78-3.26
		c1.76,0.8,5.78,3.81,5.44,10.79c-0.4,8.39-3.26,16.98-3.97,18.24c-0.85,1.49-2.32,0.63-3.37,0
		C136.57,169.39,125.86,164.15,120.98,163.95L120.98,163.95z M89.29,152.82c0,0-1.67-0.14-1.62-1.92
		c0.09-1.75,0.54-11.77,6.86-16.32c4.39-3.15,11.28-1.63,13.49,3.29c1.11,2.38,2.47,7.13,0.28,13.86c0,0-1.22,4.32-1.73,5.55
		c-0.54,1.26-1.28,1.37-2.58,0.69C102.73,157.31,95.44,153.9,89.29,152.82L89.29,152.82z M167.1,161.61
		c0.99,1.2,0.91,2.78,0.28,4.12c-0.51,1.06-1.33,2.03-2.21,2.78c-1.84,1.57-5.16,3.06-7.06,0.77c-1.02-1.2-0.91-2.78-0.28-4.12
		c0.51-1.06,1.33-2.03,2.21-2.78C161.89,160.83,165.2,159.31,167.1,161.61L167.1,161.61z M165.29,163.15
		c0.57,0.69-0.17,2.26-1.64,3.52c-1.47,1.29-3.15,1.75-3.71,1.06c-0.6-0.69,0.17-2.26,1.64-3.52S164.72,162.46,165.29,163.15
		L165.29,163.15z"/>
	<path class="st3" d="M120.64,111.87c-10.86-1.86-18.43-0.49-22.11,0.57c-0.11,0.14-0.2,0.31-0.28,0.49
		c-0.94,1.43-1.7,2.15-3.23,2.81c-1.13,0.49-2.35,1.6-2.72,2.78c-0.34,1.17-0.26,2.69,1.22,3.98c4.96,4.29,11.57,6.58,17.91,7.84
		c-0.28-2.06-0.2-4.47,0.43-5.96c0.4-0.97,0.94-1.72,1.96-2.12c1.98-0.8,3.43,0.52,4.73,1.78c1.7,1.66,3.34,3.35,5.05,4.98
		c3,2.92,6.38,4.41,10.12,5.38c-1.62-1.66-3.09-3.49-3.43-5.04c-0.17-0.83-0.06-1.69,0.4-2.4c1.22-2.03,3.54-1.69,5.44-1.12
		c1.42,0.43,2.83,1.03,4.17,1.66c1.5,0.69,3.09,1.46,4.48,2.35c3.97,2.55,8.56,6.99,10.71,11.25c2.13,4.21,2.3,9.08,2.35,13.71
		c0,1-0.11,2-0.28,3.01c0.74-0.57,1.5-1.12,2.24-1.6c3.26-2.09,8.16-2.18,10.89,0.89c1.39,1.57,2.13,3.87,2.01,5.96
		c-0.23,3.41-1.53,5.78-3.63,8.42c-1.42,1.8-3.43,3.12-5.53,4.12c0.4,0.43,0.74,0.89,1.02,1.37c1.64,2.86,0.91,8.85,0.79,12.2
		c-0.03,0.94-0.03,1.89-0.06,2.86c1.79-1.92,3.91-4.55,5.07-6.87l1.3-2.55c6.01-7.93,10.6-23.59,10.6-23.59
		c-2.69-7.53-12.16-21.24-22.14-29.43C150.12,121.44,136.46,114.57,120.64,111.87L120.64,111.87z"/>
	<path class="st4" d="M93.34,150.9l-2.81-0.69c0,0,0.6-10.88,6.75-14.03c2.47-1.26,6.21-0.06,7.77,2.32
		c-3.06-0.72-5.24-0.31-7.34,1.83C95.92,142.17,94.25,144.86,93.34,150.9L93.34,150.9z"/>
	<path class="st4" d="M102.81,141.56c1.33,0.37,1.87,2.66,1.19,5.12c-0.65,2.46-2.3,4.15-3.6,3.78c-1.33-0.37-1.87-2.66-1.22-5.12
		C99.86,142.88,101.48,141.19,102.81,141.56L102.81,141.56z"/>
	<path class="st4" d="M126.65,162.03c0,0-3.66-1.2-4.82-1.09c0,0,2.75-13.37,10.66-16.66c3.23-1.32,8.22-0.46,9.67,3.21
		c0,0-4.34-1.37-7.54,0.63C131.41,150.1,128.07,155.42,126.65,162.03L126.65,162.03z"/>
	<path class="st4" d="M138.93,151.41c1.59,0.66,2.01,3.49,0.99,6.33c-1.05,2.86-3.17,4.64-4.73,3.98c-1.59-0.66-2.04-3.52-0.99-6.36
		S137.34,150.75,138.93,151.41L138.93,151.41z"/>
	<path class="st4" d="M94.65,166.27c-0.31,0.57-0.51,1.4-0.62,2.32c2.64,1.37,7.74,3.89,13.66,5.44c5.95,1.55,11.23,1.95,13.63,2.46
		c0.37-1.46,0.17-2.92-0.65-4.24c-0.6-0.92-1.67-1.89-2.78-2.12c-1.3-0.29-2.64-0.66-3.91-1c-1.81-0.52-3.66-1.06-5.47-1.57
		c-2.07-0.63-4.17-1.23-6.24-1.86c-1.08-0.31-2.24-0.69-3.29-0.94C97.65,164.47,95.36,165.01,94.65,166.27L94.65,166.27z"/>
	<path class="st5" d="M98.65,189.03c0-0.03,0.54-0.34,1.36-0.49c2.38-0.43,7.8-0.94,13.61-0.09c0.54,0.06,1.3,0.29,1.79,0.43
		c0,0-3.37,4.58-9.38,4.44C100.01,193.21,98.65,189.03,98.65,189.03L98.65,189.03z"/>
	<path class="st0" d="M104.77,101.37c-1.76,2.61-3.34,5.47-4.85,8.25c6.83-1.52,14.4-1.26,21.12-0.09
		c14.63,2.49,29.03,8.76,40.56,18.24c3.15,2.55,6.07,5.5,8.76,8.56c3.17,3.61,6.15,7.53,8.76,11.6c0.85,1.35,1.73,2.78,2.55,4.24
		l0.45,0.92l0.26-1.06c0,0,2.04-6.24,1.76-19.96c-0.09-3.75-0.34-7.73-1.64-11.22l-1.33-3.64c-0.71-1.92-2.38-4.41-3.57-6.01
		c-3.12-4.21-7.03-7.87-11.25-10.94c-5.05-3.66-10.74-6.67-16.44-9.13c-2.18-0.92-4.42-1.8-6.66-2.58
		c-1.25-0.43-2.55-0.86-3.83-1.17c-2.55-0.6-5.02-1.32-7.63-1.78c-3.46-0.63-7.09-1-10.57-0.6c-2.83,0.31-5.36,1.66-7.48,3.52
		c-0.91,0.8-2.01,1.95-2.66,2.98C108.96,94.78,106.95,98.13,104.77,101.37L104.77,101.37z"/>
	<path class="st5" d="M128.81,87.51c5.5,0,9.95,4.49,9.95,10.05c0,5.55-4.45,10.05-9.95,10.05c-5.5,0-9.95-4.49-9.95-10.05
		C118.86,92.01,123.31,87.51,128.81,87.51L128.81,87.51z"/>
	<path class="st6" d="M129.51,96.84l0.54,0.11c0.45,0.09,0.82,0.03,1.16-0.23c0.31-0.23,0.51-0.54,0.6-0.92
		c0.09-0.34,0.03-0.72-0.17-1.06c-0.17-0.37-0.51-0.6-0.96-0.72l-0.48-0.11l0.48-2.15c0.09-0.37,0.06-0.72-0.09-1.03
		c-0.14-0.29-0.34-0.52-0.62-0.63c-0.26-0.11-0.54-0.17-0.85-0.2c-0.28,0-0.57,0.11-0.82,0.31c-0.26,0.2-0.43,0.49-0.51,0.86
		l-0.51,2.2c-0.28-0.03-0.51,0.06-0.68,0.23c-0.14,0.17-0.23,0.4-0.23,0.66c0,0.29,0.03,0.54,0.06,0.83
		c0.03,0.29,0.09,0.54,0.14,0.77c0.06,0.23,0.09,0.34,0.09,0.37l-0.85,3.87h-0.03c-0.23,1.03-0.11,1.89,0.34,2.58
		s1.22,1.17,2.35,1.43c0.6,0.14,1.08,0,1.45-0.43c0.34-0.43,0.45-0.92,0.31-1.46c-0.14-0.54-0.51-0.89-1.11-1.03
		c-0.34-0.09-0.48-0.23-0.45-0.46L129.51,96.84z"/>
	<path class="st2" d="M193.63,183.54c0.88,9.42,6.6,19.58,14.71,24.62c9.35,5.81,20.86,6.64,31.58,5.61
		c6.12-0.6,12.1-2.52,17.26-5.96c1.73-1.15,4.11-3.01,5.44-4.7l0.74-0.94c0,0,6.38-9.53,7.94-17.29c1.56-7.79,1.73-19.98,1.64-24.14
		c-0.11-4.15,0-9.36,0-9.36l0.43-3.29l-11.2-4.12c-1.7-0.31-1.87-2.95-1.87-2.95c-1.05,2.29-3.29,2.2-3.29,2.2l-14.77-1.26
		c-1.84-0.06-2.44-2.38-2.44-2.38c-0.4,1.75-1.87,2.43-1.87,2.43s-7.17,0.31-8.28,0.31s-1.47-0.74-1.47-0.74
		c-0.79-1.55-1.56-3.06-2.35-4.58c-0.26-0.66-0.77-0.92-1.28,0.03l-2.64,4.95c-0.43,0.69-0.71,0.92-1.7,1.06
		c-17.38,2.69-24.38,5.93-24.38,5.93C193.29,160.32,192.5,171.94,193.63,183.54L193.63,183.54z M215.55,190.78
		c0,0-0.14-2.52,1.96-3.44c2.07-0.89,9.61-4.15,21.43-4.27c3-0.03,17.66,0.34,18.85,4.98c0.34,1.35-0.03,3.29-1.02,5.7
		c-1.76,4.29-8.08,8.25-10.57,9.22c-2.15,0.86-13.07,3.44-22.56-0.46C218.75,200.54,215.46,196.68,215.55,190.78L215.55,190.78z
		 M241.06,174.4c-0.2-2.09-0.91-17.98,5.39-23.93c4.71-4.47,11.06-3.12,13.24-1.69c2.07,1.35,3.2,2.49,3.57,2.89
		c1.67,0.06,5.13-2.43,5.78-3.35c0,0-0.17,4.58-3.97,7.33c0,0,1.36,1,5.36-1.55c0,0-1.11,3.98-4.93,5.55c0,0,0.77,9.51-1.56,16.23
		c0,0-0.74,2.23-2.47,1.43c-1.7-0.77-8.62-2.83-17.15-1.17C242.96,176.41,241.23,176.09,241.06,174.4L241.06,174.4z M208.8,177.61
		c0,0-1.98,0.89-2.75-1.23c-0.74-2.15-3.17-19.04,2.72-25.42c4.96-5.44,10.71-4.12,12.84-3.41c1.64,0.54,2.83,1.52,4.05,2.75
		c0,0,3.6-0.83,5.87-4.47c0,0-0.23,5.18-3.4,8.39c0,0,2.49,0.03,5.1-2.52c0,0-1.42,4.55-3.86,6.1c0,0,2.01,7.73,0.11,16.98
		c0,0-0.28,2.06-2.66,1.6C224.45,175.89,216.48,174.89,208.8,177.61L208.8,177.61z"/>
	<path class="st3" d="M266.29,202h0.03c0.99-0.17,1.98-0.37,2.98-0.6c1.84-0.43,3.69-0.94,5.53-1.32c0.17-0.03,0.37-0.14,0.51-0.29
		l2.18-7.42l3.63,6.81c0.06,0.09,0.11,0.2,0.23,0.23c0.31,0.17,1.28,0.14,1.64,0.14c1.28,0,4.59-0.97,6.15-1.55l-0.6-2.61
		l-10.01-31.84c-0.77-2.29-1.53-4.58-2.3-6.87c-0.34-1-0.65-2-0.99-2.98c-0.03,2.32-0.03,4.64,0.03,6.96
		c0.11,4.98-0.09,10.22-0.45,15.17c-0.26,3.15-0.6,6.38-1.22,9.48c-0.43,2.06-1.08,4.07-1.87,5.98c-1.16,2.92-2.58,5.75-4.14,8.45
		C267.19,200.51,266.74,201.29,266.29,202L266.29,202z M262.29,136.9c-0.11-0.57-1.56-0.97-2.13-0.37l-1.98,3.49
		c-0.23,0.43-0.6,0.77-1.11,0.83l-14.68-1.29c-0.11-0.14-0.26-0.46-0.28-0.6c-0.4-1.32-0.79-2.63-1.19-3.95
		c-0.23-0.69-1.84-0.74-2.13,0l-1.28,4.04c-0.06,0.2-0.17,0.43-0.34,0.6c-1.19,0.06-2.35,0.11-3.54,0.17s-2.41,0.11-3.6,0.14
		c-1.36-2.66-2.69-5.24-4.05-7.9c-0.14-0.57-1.19-0.66-1.45-0.06l-4.59,8.67c-0.03,0-0.06,0-0.06,0c-6.35,1-12.81,2.23-18.99,4.04
		c-1.93,0.54-4.2,1.23-6.04,2.09l-1.08,0.49l-0.26,1.15c-2.58,11.6-3.4,23.51-2.27,35.33c0.62,6.38,3.26,12.37,6.86,17.58
		c1.25,1.78,2.58,3.46,4.03,5.04c0.14,0.14,0.31,0.31,0.48,0.49c-4.51,1-10.94,1.78-15.17,0.92l-4.17-7.39l-3.15,6.56
		c-1.22-0.03-2.52-0.17-3.63-0.34c-2.66-0.46-5.73-1.46-7.6-3.58l-0.11-0.11l-0.11-0.09c-0.06-0.09-0.14-0.2-0.2-0.29
		c0.37-0.92,0.79-1.83,1.22-2.75c0.71-1.63,1.45-3.26,2.18-4.9c1.11-2.46,2.27-4.95,3.29-7.44l0.88-2.12c0,0,7.31-14.54,8.76-25.94
		l2.21-14.72c0,0,20.44-19.64,45.38-23.53c0,0,19.64-3.03,33.51,1.98l0.57,0.37c3.46,2.49,9.27,7.79,10.46,12.02l0.03,0.03
		c0.48,1.83-0.11,4.44-0.91,6.07c-0.57,1.23-1.33,2.72-1.79,4.24l-11.4-4.18c-0.11-0.23-0.2-0.63-0.2-0.83
		C262.54,139.53,262.43,138.21,262.29,136.9L262.29,136.9z"/>
	<path class="st4" d="M254.92,188.89c-0.31-0.43-1.53-0.92-1.96-1.09c-1.56-0.54-3.29-0.89-4.93-1.12
		c-2.89-0.43-6.12-0.66-9.04-0.63c-6.94,0.09-13.95,1.29-20.32,4.04c-0.57,0.26,0,2.95,0.14,3.44c0,0,9.47-3.01,20.04-2.69
		c8.56,0.29,12.84,1.12,15.19,1.75C254.35,191.81,255.09,189.78,254.92,188.89L254.92,188.89z"/>
	<path class="st5" d="M220.14,196.99c0,0,5.95,6.7,20.55,4.29c0,0-3.57-6.64-17.46-5.07C222.26,196.31,221.02,196.53,220.14,196.99
		L220.14,196.99z"/>
	<path class="st4" d="M213.42,157.8c1.56-0.09,2.98,2.15,3.15,5.01c0.17,2.86-0.96,5.24-2.55,5.35c-1.56,0.09-2.98-2.15-3.15-5.01
		C210.7,160.29,211.83,157.91,213.42,157.8L213.42,157.8z"/>
	<path class="st4" d="M211.24,152.59c2.58-2.69,8.22-3.55,11.45-1.2c5.07,3.66,4.71,18.04,3.94,21.64c0,0-2.58-0.72-4.93-0.54
		c0.43-4.58,0-14.43-3.51-17.58C217.36,154.16,215.18,152.64,211.24,152.59L211.24,152.59z"/>
	<path class="st4" d="M250.3,157.54c1.59,0,2.81,2.35,2.78,5.21c-0.06,2.86-1.36,5.18-2.95,5.15c-1.56-0.03-2.81-2.38-2.78-5.24
		C247.41,159.8,248.71,157.51,250.3,157.54L250.3,157.54z"/>
	<path class="st4" d="M249.25,152.36c3.15-2.49,8.59-2.61,11.23,0.66c3.6,4.47,2.78,15.29,0.94,21.19c0,0-3.09-0.97-4.79-1.15
		c0,0,2.21-12.83-0.82-17.06C252.79,151.76,249.25,152.36,249.25,152.36L249.25,152.36z"/>
	<path class="st0" d="M186.77,117.06c-0.99,2.52-1.42,2.92-0.62,5.93c0.48,1.86,0.85,14.77,0.62,17.89v0.03
		c0.65-0.6,1.36-1.17,2.01-1.72c3.2-2.63,6.55-5.1,10.01-7.39c9.98-6.53,21.34-11.77,33.17-13.6c2.72-0.43,5.61-0.66,8.33-0.8
		c5.9-0.34,11.99-0.2,17.8,0.72c1.84,0.29,3.69,0.66,5.5,1.15c-1.19-2.66-2.44-5.33-3.69-7.96c-1.62-3.41-3.29-6.84-5.13-10.14
		c-1.67-2.98-4.68-6.56-8.02-7.67c-4.03-1.35-8.25-1.57-12.47-1.43c-6.55,0.26-14.71,2.58-20.89,4.75
		c-3.74,1.32-7.6,3.24-11.03,5.18c-2.92,1.6-5.87,3.41-8.5,5.44C191,109.67,188.11,113.59,186.77,117.06L186.77,117.06z"/>
	<path class="st5" d="M237.63,94.52c5.56,0,10.09,4.55,10.09,10.16c0,5.64-4.54,10.19-10.09,10.19c-5.58,0-10.09-4.55-10.09-10.19
		C227.54,99.08,232.04,94.52,237.63,94.52L237.63,94.52z"/>
	<path class="st6" d="M236.58,101.4l-0.48-3.01c-0.09-0.46-0.28-0.8-0.62-1c-0.34-0.23-0.71-0.29-1.08-0.23
		c-0.34,0.06-0.65,0.23-0.94,0.54c-0.26,0.31-0.37,0.69-0.28,1.15l1.16,7.33l0.65,4.18c0.09,0.46,0.28,0.8,0.62,1
		c0.37,0.23,0.71,0.29,1.08,0.23c0.37-0.06,0.68-0.23,0.94-0.54c0.26-0.31,0.37-0.69,0.28-1.15l-0.65-4.21
		c-0.06-0.37-0.03-0.74,0.11-1.06c0.14-0.34,0.37-0.54,0.65-0.6c0.34-0.06,0.62,0.06,0.88,0.34c0.23,0.29,0.37,0.6,0.43,0.97
		l0.71,4.21c0.06,0.4,0.2,0.69,0.45,0.92c0.23,0.2,0.48,0.34,0.79,0.34c0.28,0,0.57-0.03,0.85-0.14s0.48-0.31,0.65-0.6
		c0.14-0.29,0.2-0.6,0.14-1l-0.68-4.18c-0.2-1.26-0.77-2.26-1.67-2.98c-0.94-0.72-1.93-1-2.98-0.83h-0.03
		C237.23,101.14,236.89,101.25,236.58,101.4L236.58,101.4z"/>
	<path class="st4" d="M224.05,233.93c3.69-3.01,8.25-4.81,13.24-4.81c5.1,0,9.86,1.75,13.58,4.78c1.93-2.4,4.85-3.92,8.14-3.92
		c2.21,0,4.31,0.72,6.04,1.95c2.07-1.06,4.34-1.69,6.66-1.83l1.7-0.09c9.13-0.52,16.72,6.7,16.72,15.95c0,6.36,0,12.71,0,19.04
		c0,5.78-4.65,10.48-10.35,10.48c-5.44,0-9.92-4.27-10.32-9.65c-0.51,5.38-5.02,9.65-10.46,9.65c-3.23,0-6.09-1.49-8.02-3.81
		c-4.14,2.4-8.93,3.69-13.69,3.69c-5.56,0-10.83-2.52-14.8-6.38c-3.32,3.61-8.16,5.81-13.15,5.84l-19.62,0.17h-0.09
		c-0.57-0.03-1.19-0.06-1.73-0.14h-0.2l-0.17-0.06c-0.82-0.14-1.59-0.4-2.32-0.77c-4.31,2.55-10.12,1.46-13.18-2.63l-1.93-2.61
		c-1.5,3.92-5.3,6.73-9.69,6.73c-3.8,0-7.11-2.06-8.96-5.12c-4.14,3.35-9.41,5.33-15,5.33c-5.5,0-10.69-1.89-14.8-5.15
		c-1.87,3.03-5.22,5.07-9.01,5.07c-5.81,0-10.54-4.78-10.54-10.68v-7.19h-5.5v7.19c0,5.9-4.76,10.68-10.57,10.68
		c-5.84,0-10.57-4.78-10.57-10.68v-34.61c0-5.87,4.73-10.68,10.57-10.68c5.81,0,10.57,4.81,10.57,10.68v6.93h5.5v-6.93
		c0-5.87,4.73-10.68,10.54-10.68c5.84,0,10.57,4.81,10.57,10.68v2.63c3.83-2.55,8.42-3.98,13.24-3.98c4.93,0,9.64,1.52,13.52,4.21
		v-2.78c0-5.81,4.68-10.54,10.43-10.54c5.73,0,10.4,4.72,10.4,10.54v5.3l2.18-2c1.87-1.72,4.2-2.55,6.55-2.58v-0.86
		c0-5.01,3.69-9.25,8.59-9.91c1.16-0.17,2.38-0.11,3.4-0.11c2.07,0,4.11,0,6.15,0c2.95,0,5.87,0,8.82,0
		C214.78,220.24,222.41,225.88,224.05,233.93L224.05,233.93z M136.46,248.27c-2.04,0-3.23,2.2-3.23,4.07c0,1.83,1.19,4.04,3.23,4.04
		c2.01,0,3.23-2.2,3.23-4.04C139.69,250.47,138.47,248.27,136.46,248.27L136.46,248.27z"/>
	<path class="st5" d="M112.65,224.59L112.65,224.59c3.15,0,5.7,2.58,5.7,5.73v17.26c2.13-7.87,9.41-13.69,18.11-13.69
		c9.16,0,16.78,6.47,18.4,15.03V230.4c0-3.09,2.49-5.58,5.56-5.58l0,0c3.03,0,5.53,2.49,5.53,5.58v16.46l10.35-9.53
		c2.1-1.92,5.27-1.57,7.17,0.43c0.45,0.49,0.77,1,0.96,1.57v-9.08c0-2.58,1.9-4.7,4.37-5.04c0-0.09,16.19-0.06,17.72-0.06
		c7.09,0,12.98,5.41,12.98,12.02l0,0c0,4.09-2.32,7.64-5.67,9.76c2.66,1,4.93,2.83,6.38,5.12c0.09-9.96,8.16-18.04,17.09-18.04
		c8.42,0,15.22,6.04,16.1,14v-7.44c0-3.12,2.52-5.7,5.61-5.7l0,0c2.35,0,4.39,1.52,5.22,3.61c2.07-2,4.79-3.32,7.77-3.49l1.7-0.09
		c6.35-0.34,11.57,4.61,11.57,11.02c0,6.36,0,12.74,0,19.04c0,3.06-2.47,5.53-5.47,5.53c-3.03,0-5.47-2.46-5.47-5.53
		c0-4.98,0-10.08,0-15.09c0-2.69-2.18-4.9-4.85-4.9l0,0c-2.66,0-4.85,2.2-4.85,4.9v13.17v1.78c0,3.12-2.52,5.67-5.61,5.67l0,0
		c-3.09,0-5.61-2.55-5.61-5.67v-13.26c-0.54,4.78-3.4,4.78-7.63,4.78c-4.96,0-9.47,0-14.43,0c1.62,3.89,5.61,5.7,10.29,4.24
		c0.79-0.23,1.45-0.57,2.01-0.97c1.47-1.06,2.07-1.43,3.46-1.37c0.26,0.03,0.48,0.09,0.71,0.17c1.96,0.63,3.37,2.46,3.37,4.67
		c0,1.95-0.94,3.29-2.52,4.24c-3.32,1.95-7.31,3.06-11.37,3.06c-6.26,0-12.59-4.41-15.48-10.74c-0.88,5.84-6.52,10.16-12.5,10.22
		l-19.53,0.14c0,0-0.82-0.03-1.3-0.09c-1.56-0.31-2.89-1.37-3.57-2.81c-0.28,0.83-0.79,1.6-1.59,2.23c-2.21,1.78-5.7,1.26-7.37-0.97
		l-7.65-10.25l-2.35,2.12v4.7c0,3.09-2.49,5.58-5.53,5.58l0,0c-3.06,0-5.56-2.49-5.56-5.58v-9.25c-1.62,8.56-9.24,15.03-18.4,15.03
		c-8.7,0-15.99-5.78-18.11-13.69v7.87c0,3.15-2.55,5.75-5.7,5.75l0,0c-3.12,0-5.67-2.61-5.67-5.75v-12.14H91.7v12.14
		c0,3.15-2.55,5.75-5.67,5.75l0,0c-3.12,0-5.7-2.61-5.7-5.75v-34.61c0-3.15,2.58-5.73,5.7-5.73l0,0c3.12,0,5.67,2.58,5.67,5.73
		v11.85h15.28v-11.85C106.98,227.17,109.53,224.59,112.65,224.59L112.65,224.59z M243.21,248.3c-0.2-2.46-2.41-4.98-5.9-4.98
		c-3.51,0-5.61,2.29-5.92,4.98H243.21z M184.42,242.77c-0.28,0.77-0.74,1.49-1.39,2.09l-7.2,6.5l8.25,11.08
		c0.11,0.17,0.23,0.34,0.34,0.52V242.77z M194.43,234.5h10.43c2.38,0,4.2,1.98,4,4.38l0,0c-0.17,2.43-2.27,4.41-4.65,4.41h-9.78
		V234.5z M195.39,252.11h11.71c2.38,0,4.2,1.98,4.05,4.38l0,0c-0.17,2.4-2.27,4.38-4.65,4.38H194.8c-0.14,0-0.26,0-0.37,0v-8.65
		C194.74,252.13,195.05,252.11,195.39,252.11L195.39,252.11z M136.46,243.34c4.48,0,8.11,4.01,8.11,8.99c0,4.95-3.63,8.99-8.11,8.99
		s-8.11-4.04-8.11-8.99C128.35,247.35,131.98,243.34,136.46,243.34L136.46,243.34z"/>
</g>
</svg>
